<?xml version="1.0" standalone="no"?>
<!DOCTYPE svg PUBLIC "-//W3C//DTD SVG 20010904//EN"
 "http://www.w3.org/TR/2001/REC-SVG-20010904/DTD/svg10.dtd">
<svg version="1.0" xmlns="http://www.w3.org/2000/svg"
 width="480.000000pt" height="480.000000pt" viewBox="0 0 480.000000 480.000000"
 preserveAspectRatio="xMidYMid meet">

<g transform="translate(0.000000,480.000000) scale(0.100000,-0.100000)"
fill="#000000" stroke="none">
<path d="M2090 4564 c-228 -30 -448 -98 -665 -204 -497 -242 -880 -660 -1080
-1179 -45 -117 -98 -322 -120 -466 -21 -134 -24 -438 -7 -575 71 -543 346
-1052 750 -1391 425 -356 935 -534 1482 -516 96 3 218 13 270 22 462 77 868
284 1195 610 667 663 832 1678 409 2519 -324 645 -949 1088 -1667 1181 -145
19 -423 18 -567 -1z m654 -273 c306 -62 602 -202 847 -399 101 -81 270 -259
342 -360 413 -576 481 -1321 177 -1951 -286 -591 -835 -991 -1479 -1076 -136
-19 -366 -19 -502 0 -557 74 -1044 382 -1356 856 -438 667 -411 1544 68 2189
74 100 226 260 324 340 237 194 557 344 851 399 156 29 157 29 399 26 179 -2
240 -6 329 -24z"/>
<path d="M1913 3875 c-18 -8 -80 -41 -137 -75 -87 -51 -107 -67 -116 -94 -7
-21 -7 -42 -1 -57 20 -53 403 -705 424 -723 33 -28 79 -16 197 53 123 71 153
101 148 145 -2 17 -95 190 -208 385 -179 310 -208 355 -236 367 -39 16 -31 17
-71 -1z"/>
<path d="M1517 3569 c-92 -55 -177 -140 -213 -214 -29 -59 -29 -62 -28 -230 0
-198 17 -293 91 -519 192 -590 601 -1204 1011 -1519 234 -180 397 -203 621
-87 31 16 62 33 69 38 10 6 -38 97 -193 364 l-205 355 -57 -20 c-64 -21 -124
-18 -196 10 -210 82 -434 384 -513 690 -21 81 -25 115 -22 198 5 119 31 188
88 238 l38 32 -202 349 c-111 193 -206 351 -212 353 -5 1 -40 -16 -77 -38z"/>
<path d="M2861 1971 c-63 -37 -120 -76 -127 -86 -32 -43 -19 -73 187 -430 110
-193 210 -358 221 -367 35 -31 75 -22 192 44 61 34 121 72 134 85 46 46 38 66
-178 441 -111 191 -210 355 -222 365 -38 32 -84 21 -207 -52z"/>
</g>
</svg>
