<?xml version="1.0" standalone="no"?>
<!DOCTYPE svg PUBLIC "-//W3C//DTD SVG 20010904//EN"
 "http://www.w3.org/TR/2001/REC-SVG-20010904/DTD/svg10.dtd">
<svg version="1.0" xmlns="http://www.w3.org/2000/svg"
 width="360.000000pt" height="360.000000pt" viewBox="0 0 360.000000 360.000000"
 preserveAspectRatio="xMidYMid meet">

<g transform="translate(0.000000,360.000000) scale(0.100000,-0.100000)"
fill="#000000" stroke="none">
<path d="M1625 3514 c-421 -45 -847 -264 -1100 -565 -344 -411 -482 -938 -374
-1435 46 -214 153 -460 277 -634 85 -120 249 -285 372 -373 113 -80 339 -194
468 -236 191 -63 276 -75 512 -75 236 0 317 12 512 74 146 47 377 167 499 259
500 377 751 1052 619 1663 -75 344 -290 712 -539 920 -233 194 -497 321 -786
378 -107 21 -363 34 -460 24z m953 -1030 c12 -14 22 -38 22 -53 0 -24 -226
-1108 -275 -1319 -18 -76 -29 -98 -56 -113 -42 -22 -83 0 -299 160 l-214 159
-116 -108 c-108 -100 -153 -131 -167 -116 -11 11 27 420 40 432 6 7 181 166
387 354 206 188 376 348 378 356 2 8 -4 14 -15 14 -10 0 -238 -139 -507 -309
l-489 -308 -226 69 c-124 38 -232 75 -240 83 -23 22 -5 62 37 84 32 16 1495
584 1627 631 58 21 81 18 113 -16z"/>
</g>
</svg>
